<svg id="XMLID_1_" xmlns="http://www.w3.org/2000/svg" width="25.313" height="25.122" viewBox="0 0 25.313 25.122">
  <path id="Path_8" data-name="Path 8" d="M14.027,9.09l9.292,1.846a1.558,1.558,0,0,1,1.255,1.54V23.233a1.58,1.58,0,0,1-1.582,1.582H13.5a.522.522,0,0,0,.527-.527v-.527h8.965a.529.529,0,0,0,.527-.527V12.476a.53.53,0,0,0-.411-.517l-9.081-1.793Z" transform="translate(0.738 0.307)" fill="#0cf"/>
  <path id="Path_9" data-name="Path 9" d="M19.637,14a.527.527,0,0,1,0,1.055H17.527a.527.527,0,0,1,0-1.055Z" transform="translate(0.93 0.575)" fill="#0cf"/>
  <path id="Path_10" data-name="Path 10" d="M19.637,17a.527.527,0,1,1,0,1.055H17.527a.527.527,0,1,1,0-1.055Z" transform="translate(0.93 0.739)" fill="#0cf"/>
  <path id="Path_11" data-name="Path 11" d="M19.637,20a.527.527,0,1,1,0,1.055H17.527a.527.527,0,1,1,0-1.055Z" transform="translate(0.93 0.903)" fill="#0cf"/>
  <path id="Path_12" data-name="Path 12" d="M14.055,24.293a.527.527,0,0,1-1.055,0V9.527a.561.561,0,0,1,.19-.411.554.554,0,0,1,.443-.105l.422.084v15.2Z" transform="translate(0.711 0.302)" fill="#0cf"/>
  <path id="Path_13" data-name="Path 13" d="M13.191,23v.527a.522.522,0,0,0,.527.527H9.5a.522.522,0,0,0,.527-.527V23Z" transform="translate(0.52 1.067)" fill="#0cf"/>
  <path id="Path_14" data-name="Path 14" d="M10.637,5a.527.527,0,1,1,0,1.055H8.527A.527.527,0,1,1,8.527,5Z" transform="translate(0.438 0.083)" fill="#0cf"/>
  <path id="Path_15" data-name="Path 15" d="M11.164,8.527a.522.522,0,0,1-.527.527H8.527A.527.527,0,1,1,8.527,8h2.109A.522.522,0,0,1,11.164,8.527Z" transform="translate(0.438 0.247)" fill="#0cf"/>
  <path id="Path_16" data-name="Path 16" d="M10.637,11a.527.527,0,1,1,0,1.055H8.527a.527.527,0,1,1,0-1.055Z" transform="translate(0.438 0.411)" fill="#0cf"/>
  <path id="Path_17" data-name="Path 17" d="M10.637,14a.527.527,0,0,1,0,1.055H8.527a.527.527,0,0,1,0-1.055Z" transform="translate(0.438 0.575)" fill="#0cf"/>
  <path id="Path_18" data-name="Path 18" d="M6.164,14.527a.522.522,0,0,1-.527.527H3.527a.527.527,0,0,1,0-1.055H5.637A.522.522,0,0,1,6.164,14.527Z" transform="translate(0.164 0.575)" fill="#0cf"/>
  <path id="Path_19" data-name="Path 19" d="M5.637,5a.527.527,0,1,1,0,1.055H3.527A.527.527,0,1,1,3.527,5Z" transform="translate(0.164 0.083)" fill="#0cf"/>
  <path id="Path_20" data-name="Path 20" d="M5.637,8a.527.527,0,1,1,0,1.055H3.527A.527.527,0,1,1,3.527,8Z" transform="translate(0.164 0.247)" fill="#0cf"/>
  <path id="Path_21" data-name="Path 21" d="M5.637,11a.527.527,0,1,1,0,1.055H3.527a.527.527,0,1,1,0-1.055Z" transform="translate(0.164 0.411)" fill="#0cf"/>
  <path id="Path_22" data-name="Path 22" d="M9.273,18.582a.529.529,0,0,0-.527-.527H5.582a.522.522,0,0,0-.527.527v4.746H4V18.582A1.58,1.58,0,0,1,5.582,17H8.746a1.58,1.58,0,0,1,1.582,1.582v4.746H9.273Z" transform="translate(0.219 0.739)" fill="#0cf"/>
  <path id="Path_23" data-name="Path 23" d="M5.055,23h5.273v.527a.522.522,0,0,1-.527.527H4.527A.522.522,0,0,1,4,23.527V23Z" transform="translate(0.219 1.067)" fill="#0cf"/>
  <path id="Path_24" data-name="Path 24" d="M1.846.2,13.437,1.962a1.576,1.576,0,0,1,1.329,1.561V9.577l-.422-.084A.554.554,0,0,0,13.9,9.6a.561.561,0,0,0-.19.411V3.523A.533.533,0,0,0,13.268,3L1.677,1.245a.292.292,0,0,0-.095-.011.5.5,0,0,0-.338.127.5.5,0,0,0-.19.4V23.721a.529.529,0,0,0,.527.527H4.219v.527a.522.522,0,0,0,.527.527H1.582A1.58,1.58,0,0,1,0,23.721V1.762A1.553,1.553,0,0,1,.559.56,1.583,1.583,0,0,1,1.846.2Z" transform="translate(0 -0.181)" fill="#0cf"/>
</svg>
