<svg id="_004-dashboard-interface" data-name="004-dashboard-interface" xmlns="http://www.w3.org/2000/svg" width="25.911" height="25.911" viewBox="0 0 25.911 25.911">
  <g id="Group_6" data-name="Group 6">
    <path id="Path_25" data-name="Path 25" d="M24.292,6.478H1.619A1.621,1.621,0,0,1,0,4.858V1.619A1.621,1.621,0,0,1,1.619,0H24.292a1.621,1.621,0,0,1,1.619,1.619V4.858A1.621,1.621,0,0,1,24.292,6.478ZM1.619,1.08a.54.54,0,0,0-.54.54V4.858a.54.54,0,0,0,.54.54H24.292a.54.54,0,0,0,.54-.54V1.619a.54.54,0,0,0-.54-.54Z" fill="#0cf"/>
  </g>
  <g id="Group_7" data-name="Group 7" transform="translate(0 8.637)">
    <path id="Path_26" data-name="Path 26" d="M10.256,25.274H1.619A1.621,1.621,0,0,1,0,23.655V9.619A1.621,1.621,0,0,1,1.619,8h8.637a1.621,1.621,0,0,1,1.619,1.619V23.655A1.621,1.621,0,0,1,10.256,25.274ZM1.619,9.08a.54.54,0,0,0-.54.54V23.655a.54.54,0,0,0,.54.54h8.637a.54.54,0,0,0,.54-.54V9.619a.54.54,0,0,0-.54-.54Z" transform="translate(0 -8)" fill="#0cf"/>
  </g>
  <g id="Group_8" data-name="Group 8" transform="translate(14.035 8.637)">
    <path id="Path_27" data-name="Path 27" d="M23.256,15.557H14.619A1.621,1.621,0,0,1,13,13.938V9.619A1.621,1.621,0,0,1,14.619,8h8.637a1.621,1.621,0,0,1,1.619,1.619v4.318A1.621,1.621,0,0,1,23.256,15.557ZM14.619,9.08a.54.54,0,0,0-.54.54v4.318a.54.54,0,0,0,.54.54h8.637a.54.54,0,0,0,.54-.54V9.619a.54.54,0,0,0-.54-.54Z" transform="translate(-13 -8)" fill="#0cf"/>
  </g>
  <g id="Group_9" data-name="Group 9" transform="translate(14.035 18.354)">
    <path id="Path_28" data-name="Path 28" d="M23.256,24.557H14.619A1.621,1.621,0,0,1,13,22.938V18.619A1.621,1.621,0,0,1,14.619,17h8.637a1.621,1.621,0,0,1,1.619,1.619v4.318A1.621,1.621,0,0,1,23.256,24.557ZM14.619,18.08a.54.54,0,0,0-.54.54v4.318a.54.54,0,0,0,.54.54h8.637a.54.54,0,0,0,.54-.54V18.619a.54.54,0,0,0-.54-.54Z" transform="translate(-13 -17)" fill="#0cf"/>
  </g>
</svg>
