<svg xmlns="http://www.w3.org/2000/svg" width="22.564" height="33.476" viewBox="0 0 22.564 33.476">
  <g id="_003-employee" data-name="003-employee" transform="translate(-83.447)">
    <g id="Group_91" data-name="Group 91" transform="translate(83.447)">
      <path id="Path_73" data-name="Path 73" d="M105.521,27.123a.49.49,0,0,0-.49.49v4.61a.271.271,0,0,1-.271.271h-2.636V22.838a.49.49,0,0,0-.981,0V32.5H95.835L97.374,30.8a.879.879,0,0,0,.212-.705l0-.015L96.118,21.42l.395-.595a1.112,1.112,0,0,0,.7.3.859.859,0,0,0,.769-.475h0l1.546-3.1,3.523,1.364a3.4,3.4,0,0,1,1.978,3.089v3.317a.49.49,0,1,0,.981,0V22.009a4.376,4.376,0,0,0-2.588-4l-.009,0-5.863-2.27V14.363A4.6,4.6,0,0,0,99.29,11.34a2.123,2.123,0,0,0,1.247-.509,2.082,2.082,0,0,0,.217-2.938V6.078a6.077,6.077,0,1,0-12.155,0V7.942a1.969,1.969,0,0,0-.506,1.312,2.078,2.078,0,0,0,.723,1.578,2.121,2.121,0,0,0,1.246.508,4.546,4.546,0,0,0,1.838,3.1v1.3l-5.856,2.27-.009,0a4.376,4.376,0,0,0-2.588,4V32.224A1.253,1.253,0,0,0,84.7,33.476h4.672a.49.49,0,1,0,0-.981H88.316V22.838a.49.49,0,1,0-.981,0V32.5H84.7a.271.271,0,0,1-.271-.271V22.008a3.4,3.4,0,0,1,1.977-3.088l3.52-1.365,1.546,3.1a.859.859,0,0,0,.769.475,1.111,1.111,0,0,0,.7-.3l.395.595-1.466,8.661,0,.015a.879.879,0,0,0,.212.705L93.62,32.5H91.659a.49.49,0,1,0,0,.981h13.1a1.253,1.253,0,0,0,1.252-1.252v-4.61A.491.491,0,0,0,105.521,27.123ZM98.611,17.2l-1.442,2.889-1.734-1.231,1.781-2.2Zm-2.9,3.058-.374.563H94.116l-.374-.563.985-.7ZM92.881,15.9v-.918a4.975,4.975,0,0,0,1.854.351,4.6,4.6,0,0,0,1.834-.382V15.9l-1.843,2.274Zm7.4-6.642a1.1,1.1,0,0,1-.382.834,1.142,1.142,0,0,1-.566.261V8.16A1.109,1.109,0,0,1,100.279,9.254ZM90.022,10.349a1.108,1.108,0,0,1-.948-1.095,1.165,1.165,0,0,1,.948-1.07Zm.026-3.163a2.425,2.425,0,0,0-.469.106V6.078a5.1,5.1,0,1,1,10.193,0v1.18a2.18,2.18,0,0,0-.442-.085c0-.473,0-.382-1.544-2.046a.872.872,0,0,0-1.114-.136,9.454,9.454,0,0,1-5.715,1.539A.872.872,0,0,0,90.048,7.185ZM91,10.735V7.514a10.479,10.479,0,0,0,6.129-1.653c.71.762,1.094,1.162,1.218,1.314v3.559a3.674,3.674,0,0,1-7.347,0Zm1.282,9.355L90.844,17.2l1.392-.539,1.781,2.2Zm.563,10.1L94.267,21.8h.92l1.419,8.386-1.879,2.068Z" transform="translate(-83.447)" fill="#0cf"/>
    </g>
  </g>
</svg>
