<svg xmlns="http://www.w3.org/2000/svg" width="26.275" height="26.278" viewBox="0 0 26.275 26.278">
  <g id="Analysis-report-document-develop-infromation" transform="translate(-2.009 -2)">
    <path id="Path_64" data-name="Path 64" d="M28.156,6.945,23.339,2.127A.452.452,0,0,0,23.028,2H12.078a1.318,1.318,0,0,0-1.314,1.314v2.65a9.186,9.186,0,0,0,0,18.351v2.65a1.318,1.318,0,0,0,1.314,1.314H26.97a1.318,1.318,0,0,0,1.314-1.314V7.256A.452.452,0,0,0,28.156,6.945ZM23.466,3.493,26.79,6.818H23.9a.438.438,0,0,1-.438-.438ZM2.881,15.139a8.332,8.332,0,0,1,7.884-8.308V14.96L5.027,20.7A8.269,8.269,0,0,1,2.881,15.139Zm2.764,6.175,5.737-5.737h8.129A8.305,8.305,0,0,1,5.645,21.315Zm21.763,5.65a.438.438,0,0,1-.438.438H12.078a.438.438,0,0,1-.438-.438v-2.65A9.2,9.2,0,0,0,20.4,15.139a.438.438,0,0,0-.438-.438H11.64V3.314a.438.438,0,0,1,.438-.438H22.59v3.5A1.318,1.318,0,0,0,23.9,7.694h3.5Z" fill="#0cf"/>
    <path id="Path_65" data-name="Path 65" d="M26.438,7A.438.438,0,0,0,26,7.438V16.2a.438.438,0,0,0,.438.438H35.2a.438.438,0,0,0,.438-.438,9.208,9.208,0,0,0-9.2-9.2Zm.438,8.759V7.889a8.329,8.329,0,0,1,7.87,7.87Z" transform="translate(-13.484 -2.81)" fill="#0cf"/>
    <path id="Path_66" data-name="Path 66" d="M43.942,40a3.942,3.942,0,1,0,3.942,3.942A3.942,3.942,0,0,0,43.942,40Zm0,7.008a3.066,3.066,0,1,1,3.066-3.066A3.066,3.066,0,0,1,43.942,47.008Z" transform="translate(-21.352 -21.357)" fill="#0cf"/>
    <path id="Path_67" data-name="Path 67" d="M44.917,47.611l-1-1-.619.619,1.314,1.314a.438.438,0,0,0,.619,0l2.628-2.628-.619-.619Z" transform="translate(-23.203 -24.332)" fill="#0cf"/>
    <path id="Path_68" data-name="Path 68" d="M50,19h3.5v.876H50Z" transform="translate(-26.972 -9.554)" fill="#0cf"/>
    <path id="Path_69" data-name="Path 69" d="M50,25h3.5v.876H50Z" transform="translate(-26.972 -12.927)" fill="#0cf"/>
    <path id="Path_70" data-name="Path 70" d="M50,31h3.5v.876H50Z" transform="translate(-26.972 -16.299)" fill="#0cf"/>
  </g>
</svg>
