<svg xmlns="http://www.w3.org/2000/svg" width="23.898" height="23.898" viewBox="0 0 23.898 23.898">
  <g id="_004-resource" data-name="004-resource" transform="translate(0 0)">
    <path id="Path_74" data-name="Path 74" d="M118.553,56a6.553,6.553,0,1,0,6.553,6.553A6.56,6.56,0,0,0,118.553,56Zm-3.918,10.793h7.835a5.748,5.748,0,0,1-7.835,0Zm2.462-2.6a1.531,1.531,0,0,0,2.911,0l1.175.336a1.162,1.162,0,0,1,.839,1.112v.378h-6.938v-.378a1.162,1.162,0,0,1,.839-1.112Zm.685-.6a2.671,2.671,0,0,0,1.542,0v.114a.771.771,0,1,1-1.542,0Zm.771-.657a1.93,1.93,0,0,1-1.927-1.927V60.24a1.927,1.927,0,0,1,3.854,0v.771A1.929,1.929,0,0,1,118.553,62.938Zm4.24,3.532v-.827a1.936,1.936,0,0,0-1.4-1.854l-1.3-.372v-.2a2.7,2.7,0,0,0,1.156-2.211V60.24a2.7,2.7,0,0,0-5.4,0v.771a2.7,2.7,0,0,0,1.156,2.211v.2l-1.3.372a1.936,1.936,0,0,0-1.4,1.854v.827a5.782,5.782,0,1,1,8.48,0Zm0,0" transform="translate(-106.604 -53.302)" fill="#0cf"/>
    <path id="Path_75" data-name="Path 75" d="M22.5,20.895l-1.3-.372v-.2a2.7,2.7,0,0,0,1.156-2.211v-.771a2.7,2.7,0,0,0-2.463-2.686l-.841-1.543A8.039,8.039,0,0,0,19.7,11.54l1.495-.464V7.425L19.7,6.961a8.074,8.074,0,0,0-.653-1.576L19.781,4,17.2,1.419l-1.385.728a8.054,8.054,0,0,0-1.576-.652L13.774,0H10.123L9.659,1.495a8.054,8.054,0,0,0-1.576.652L6.7,1.419,4.116,4l.729,1.385a8.075,8.075,0,0,0-.653,1.576l-1.5.464v3.651l1.495.464a8.039,8.039,0,0,0,.652,1.576L4,14.66a2.7,2.7,0,0,0-2.463,2.686v.771A2.7,2.7,0,0,0,2.7,20.327v.2l-1.3.372A1.936,1.936,0,0,0,0,22.748V23.9h8.48V22.748a1.936,1.936,0,0,0-1.4-1.854l-1.3-.372v-.2a2.7,2.7,0,0,0,1.156-2.211v-.771a2.686,2.686,0,0,0-.03-.384l1.175-.607a8.03,8.03,0,0,0,1.576.653l.464,1.495h3.651l.464-1.495a8.03,8.03,0,0,0,1.576-.653l1.167.612.007,0a2.659,2.659,0,0,0-.029.375v.771a2.7,2.7,0,0,0,1.156,2.211v.2l-1.3.372a1.936,1.936,0,0,0-1.4,1.854V23.9H23.9V22.748a1.936,1.936,0,0,0-1.4-1.854ZM18.886,20.7a2.671,2.671,0,0,0,1.542,0v.114a.771.771,0,0,1-1.542,0Zm-15.418,0a2.671,2.671,0,0,0,1.542,0v.114a.771.771,0,1,1-1.542,0Zm4.24,2.048v.378H.77v-.378a1.162,1.162,0,0,1,.839-1.112L2.784,21.3a1.531,1.531,0,0,0,2.911,0l1.175.336A1.162,1.162,0,0,1,7.708,22.748ZM6.167,18.116a1.927,1.927,0,1,1-3.854,0v-.771a1.927,1.927,0,0,1,3.854,0Zm10.04-2.426-.288-.287-.257.152a7.3,7.3,0,0,1-1.883.78l-.289.074v.407l-.284.915H10.691l-.284-.915v-.407l-.289-.074a7.3,7.3,0,0,1-1.883-.78L7.978,15.4l-.288.287-1,.528a2.706,2.706,0,0,0-1.838-1.5l.658-1.208.289-.29-.152-.257a7.276,7.276,0,0,1-.78-1.883l-.074-.289H4.384l-.915-.284V7.993l.915-.284h.407l.074-.289a7.3,7.3,0,0,1,.78-1.883L5.8,5.28l-.287-.288-.446-.848L6.842,2.365l.848.446.288.288.257-.153a7.269,7.269,0,0,1,1.883-.779l.289-.074V1.686L10.69.771h2.516l.284.915v.407l.289.074a7.282,7.282,0,0,1,1.883.779l.257.153.288-.288.848-.446,1.778,1.779-.446.848L18.1,5.28l.152.257a7.3,7.3,0,0,1,.78,1.883l.074.289h.407l.915.284v2.516l-.915.284h-.407l-.074.289a7.276,7.276,0,0,1-.78,1.883l-.152.257.289.29.658,1.208a2.706,2.706,0,0,0-1.838,1.5Zm1.523,2.426v-.771a1.927,1.927,0,0,1,3.854,0v.771a1.927,1.927,0,0,1-3.854,0Zm5.4,5.011H16.188v-.378a1.162,1.162,0,0,1,.839-1.112L18.2,21.3a1.531,1.531,0,0,0,2.911,0l1.175.336a1.162,1.162,0,0,1,.839,1.112Zm0,0" fill="#0cf"/>
  </g>
</svg>
