<svg id="_001-video-tutorial" data-name="001-video-tutorial" xmlns="http://www.w3.org/2000/svg" width="26" height="24.551" viewBox="0 0 26 24.551">
  <path id="Path_3" data-name="Path 3" d="M26,2.666A2.981,2.981,0,0,0,22.784,0H3.216A2.981,2.981,0,0,0,0,2.666V21.885a2.981,2.981,0,0,0,3.216,2.666H22.784A2.981,2.981,0,0,0,26,21.885ZM1.072,21.888V2.663A1.987,1.987,0,0,1,3.217.889h.8V23.662h-.8a1.987,1.987,0,0,1-2.145-1.774Zm23.856,0a1.987,1.987,0,0,1-2.145,1.774H5.093V.889h17.69a1.987,1.987,0,0,1,2.145,1.774Zm0,0" fill="#0cf"/>
  <path id="Path_4" data-name="Path 4" d="M121.22,58.444a.444.444,0,0,0-.444-.444H109.444a.444.444,0,0,0-.444.444V72.275a.444.444,0,0,0,.444.444h11.331a.444.444,0,0,0,.444-.444Zm-11.331.444h10.442V71.775H109.889Zm0,0" transform="translate(-100.059 -54.778)" fill="#0cf"/>
  <path id="Path_5" data-name="Path 5" d="M120.785,367h-11.33a.444.444,0,1,0,0,.889h11.33a.444.444,0,1,0,0-.889Zm0,0" transform="translate(-100.07 -346.615)" fill="#0cf"/>
  <path id="Path_6" data-name="Path 6" d="M175.327,136.668l-4.666-2.611a.444.444,0,0,0-.661.388v5.221a.444.444,0,0,0,.661.388l4.666-2.611a.444.444,0,0,0,0-.775Zm-4.438,2.24V135.2l3.311,1.853Zm0,0" transform="translate(-157.931 -126.558)" fill="#0cf"/>
</svg>
