<svg xmlns="http://www.w3.org/2000/svg" width="27.046" height="17.638" viewBox="0 0 27.046 17.638">
  <g id="_005-user" data-name="005-user" transform="translate(0 -85.333)">
    <g id="Group_11" data-name="Group 11" transform="translate(9.407 85.333)">
      <g id="Group_10" data-name="Group 10" transform="translate(0 0)">
        <path id="Path_29" data-name="Path 29" d="M174.782,85.333a4.116,4.116,0,1,0,4.116,4.116A4.12,4.12,0,0,0,174.782,85.333Zm0,7.055a2.94,2.94,0,1,1,2.94-2.94A2.944,2.944,0,0,1,174.782,92.388Z" transform="translate(-170.666 -85.333)" fill="#0cf"/>
      </g>
    </g>
    <g id="Group_13" data-name="Group 13" transform="translate(18.814 90.037)">
      <g id="Group_12" data-name="Group 12" transform="translate(0 0)">
        <path id="Path_30" data-name="Path 30" d="M344.274,170.667a2.94,2.94,0,1,0,2.94,2.94A2.944,2.944,0,0,0,344.274,170.667Zm0,4.7a1.764,1.764,0,1,1,1.764-1.764A1.766,1.766,0,0,1,344.274,175.371Z" transform="translate(-341.334 -170.667)" fill="#0cf"/>
      </g>
    </g>
    <g id="Group_15" data-name="Group 15" transform="translate(2.435 90.037)">
      <g id="Group_14" data-name="Group 14" transform="translate(0 0)">
        <path id="Path_31" data-name="Path 31" d="M47.122,170.667a2.94,2.94,0,1,0,2.94,2.94A2.943,2.943,0,0,0,47.122,170.667Zm0,4.7a1.764,1.764,0,1,1,1.764-1.764A1.766,1.766,0,0,1,47.122,175.371Z" transform="translate(-44.182 -170.667)" fill="#0cf"/>
      </g>
    </g>
    <g id="Group_17" data-name="Group 17" transform="translate(5.879 94.74)">
      <g id="Group_16" data-name="Group 16" transform="translate(0 0)">
        <path id="Path_32" data-name="Path 32" d="M114.309,256a7.652,7.652,0,0,0-7.643,7.643.588.588,0,0,0,1.176,0,6.467,6.467,0,1,1,12.935,0,.588.588,0,0,0,1.176,0A7.652,7.652,0,0,0,114.309,256Z" transform="translate(-106.666 -256)" fill="#0cf"/>
      </g>
    </g>
    <g id="Group_19" data-name="Group 19" transform="translate(18.73 97.092)">
      <g id="Group_18" data-name="Group 18" transform="translate(0 0)">
        <path id="Path_33" data-name="Path 33" d="M342.837,298.667a5.292,5.292,0,0,0-2.741.764.588.588,0,0,0,.61,1.005,4.116,4.116,0,0,1,6.246,3.522.588.588,0,0,0,1.176,0A5.3,5.3,0,0,0,342.837,298.667Z" transform="translate(-339.813 -298.667)" fill="#0cf"/>
      </g>
    </g>
    <g id="Group_21" data-name="Group 21" transform="translate(0 97.092)">
      <g id="Group_20" data-name="Group 20" transform="translate(0 0)">
        <path id="Path_34" data-name="Path 34" d="M8.031,299.43A5.293,5.293,0,0,0,0,303.958a.588.588,0,0,0,1.176,0,4.117,4.117,0,0,1,6.245-3.523.588.588,0,0,0,.61-1.005Z" transform="translate(0 -298.667)" fill="#0cf"/>
      </g>
    </g>
  </g>
</svg>
