<svg xmlns="http://www.w3.org/2000/svg" width="20.402" height="12.241" viewBox="0 0 20.402 12.241">
  <g id="outline" transform="translate(-16 -112)">
    <path id="Path_71" data-name="Path 71" d="M34.957,112H19.485a1.447,1.447,0,0,0-1.445,1.445v4.676h-1.7a.34.34,0,1,0,0,.68h1.7v2.04h-.68a.34.34,0,1,0,0,.68h.68V122.8a1.447,1.447,0,0,0,1.445,1.445H34.957A1.447,1.447,0,0,0,36.4,122.8v-9.351A1.447,1.447,0,0,0,34.957,112Zm-15.472.68H34.957a.765.765,0,0,1,.157.016l-7.179,6.075a1.1,1.1,0,0,1-1.428,0L19.328,112.7A.765.765,0,0,1,19.485,112.68ZM18.72,122.8v-1.275h.68a.34.34,0,1,0,0-.68h-.68v-.68h1.02a.34.34,0,0,0,0-.68H18.72v-.68h1.36a.34.34,0,1,0,0-.68H18.72v-4.676a.759.759,0,0,1,.072-.321.343.343,0,0,0,.049.051l6.482,5.485-6.537,4.445A.76.76,0,0,1,18.72,122.8Zm16.237.765H19.485a.766.766,0,0,1-.141-.014l6.517-4.432.206.174a1.78,1.78,0,0,0,2.306,0l.206-.174,6.517,4.432A.767.767,0,0,1,34.957,123.561Zm.765-.765a.759.759,0,0,1-.066.309l-6.537-4.445,6.535-5.529a.759.759,0,0,1,.068.314Z" transform="translate(0)" fill="#ccc"/>
    <path id="Path_72" data-name="Path 72" d="M25.02,288.68a.34.34,0,1,0,0-.68h-.68a.34.34,0,0,0,0,.68Z" transform="translate(-7.66 -168.519)" fill="#ccc"/>
  </g>
</svg>
