<svg xmlns="http://www.w3.org/2000/svg" width="13" height="17.596" viewBox="0 0 13 17.596">
  <g id="_927667" data-name="927667" transform="translate(-48.08)">
    <g id="Group_41" data-name="Group 41" transform="translate(48.08)">
      <g id="Group_40" data-name="Group 40" transform="translate(0)">
        <path id="Path_109" data-name="Path 109" d="M54.58,0a6.507,6.507,0,0,0-6.5,6.5A7.5,7.5,0,0,0,48.631,9a10.482,10.482,0,0,0,.751,1.405l4.457,6.753a.848.848,0,0,0,1.481,0l4.457-6.753A10.439,10.439,0,0,0,60.529,9a7.5,7.5,0,0,0,.551-2.5A6.507,6.507,0,0,0,54.58,0Zm5.244,8.706a9.6,9.6,0,0,1-.685,1.281L54.682,16.74c-.088.133-.116.133-.2,0L50.021,9.987a9.609,9.609,0,0,1-.685-1.281A6.807,6.807,0,0,1,48.845,6.5a5.735,5.735,0,0,1,11.471,0A6.813,6.813,0,0,1,59.824,8.706Z" transform="translate(-48.08)" fill="#ccc"/>
        <path id="Path_110" data-name="Path 110" d="M115.521,64.008a3.441,3.441,0,1,0,3.441,3.441A3.445,3.445,0,0,0,115.521,64.008Zm0,6.118a2.676,2.676,0,1,1,2.676-2.676A2.68,2.68,0,0,1,115.521,70.126Z" transform="translate(-109.021 -60.949)" fill="#ccc"/>
      </g>
    </g>
  </g>
</svg>
