<svg xmlns="http://www.w3.org/2000/svg" width="37" height="37" viewBox="0 0 37 37">
  <g id="Group_44" data-name="Group 44" transform="translate(-277 -7)">
    <circle id="Ellipse_10" data-name="Ellipse 10" cx="18.5" cy="18.5" r="18.5" transform="translate(277 7)" fill="#619025"/>
    <path id="Path_107" data-name="Path 107" d="M35.522,112H19.589a1.49,1.49,0,0,0-1.488,1.488V118.3H16.35a.35.35,0,1,0,0,.7H18.1v2.1h-.7a.35.35,0,1,0,0,.7h.7v1.313a1.49,1.49,0,0,0,1.488,1.488H35.522a1.49,1.49,0,0,0,1.488-1.488v-9.63A1.49,1.49,0,0,0,35.522,112Zm-15.933.7H35.522a.788.788,0,0,1,.162.017l-7.393,6.256a1.135,1.135,0,0,1-1.47,0l-7.393-6.256A.788.788,0,0,1,19.589,112.7ZM18.8,123.118V121.8h.7a.35.35,0,1,0,0-.7h-.7v-.7h1.051a.35.35,0,0,0,0-.7H18.8V119h1.4a.35.35,0,1,0,0-.7H18.8v-4.815a.781.781,0,0,1,.074-.331.354.354,0,0,0,.05.053l6.676,5.649-6.732,4.578A.782.782,0,0,1,18.8,123.118Zm16.721.788H19.589a.789.789,0,0,1-.145-.014l6.711-4.564.212.179a1.833,1.833,0,0,0,2.375,0l.212-.179,6.711,4.564A.791.791,0,0,1,35.522,123.906Zm.788-.788a.782.782,0,0,1-.068.318l-6.732-4.577,6.729-5.694a.782.782,0,0,1,.07.324Z" transform="translate(268.406 -92.156)" fill="#fff"/>
  </g>
</svg>
