<svg xmlns="http://www.w3.org/2000/svg" width="37" height="37" viewBox="0 0 37 37">
  <g id="Group_45" data-name="Group 45" transform="translate(-489 -7)">
    <circle id="Ellipse_9" data-name="Ellipse 9" cx="18.5" cy="18.5" r="18.5" transform="translate(489 7)" fill="#619025"/>
    <path id="Icon_feather-phone" data-name="Icon feather-phone" d="M18.03,14.149v2.242A1.495,1.495,0,0,1,16.4,17.886a14.789,14.789,0,0,1-6.449-2.294,14.572,14.572,0,0,1-4.484-4.484A14.789,14.789,0,0,1,3.174,4.629,1.495,1.495,0,0,1,4.661,3H6.9A1.5,1.5,0,0,1,8.4,4.285a9.6,9.6,0,0,0,.523,2.1,1.5,1.5,0,0,1-.336,1.577l-.949.949a11.957,11.957,0,0,0,4.484,4.484l.949-.949a1.5,1.5,0,0,1,1.577-.336,9.6,9.6,0,0,0,2.1.523A1.5,1.5,0,0,1,18.03,14.149Z" transform="translate(497.143 15.5)" fill="none" stroke="#fff" stroke-linecap="round" stroke-linejoin="round" stroke-width="1"/>
  </g>
</svg>
