<svg xmlns="http://www.w3.org/2000/svg" width="85.552" height="85.552" viewBox="0 0 85.552 85.552">
  <g id="Group_44" data-name="Group 44" transform="translate(-1586.224 -401)">
    <g id="_149125" data-name="149125" transform="translate(1586.224 401)">
      <path id="Path_112" data-name="Path 112" d="M42.776,0A42.776,42.776,0,1,0,85.552,42.776,42.824,42.824,0,0,0,42.776,0Zm0,82.7A39.924,39.924,0,1,1,82.7,42.776,39.97,39.97,0,0,1,42.776,82.7Z" fill="#0cf"/>
    </g>
    <g id="_151860" data-name="151860" transform="translate(1612.65 423.465)">
      <path id="Path_113" data-name="Path 113" d="M38.618,18.768,6.717.351A2.616,2.616,0,0,0,2.793,2.616V39.453A2.614,2.614,0,0,0,4.1,41.718a2.582,2.582,0,0,0,1.308.351,2.618,2.618,0,0,0,1.308-.351L38.618,23.3a2.619,2.619,0,0,0,0-4.534Z" fill="#0cf"/>
    </g>
  </g>
</svg>
