<svg xmlns="http://www.w3.org/2000/svg" width="15.579" height="10.39" viewBox="0 0 15.579 10.39">
  <path id="Icon_ionic-ios-arrow-round-down" data-name="Icon ionic-ios-arrow-round-down" d="M21.439,17.81a.707.707,0,0,0-1-.005l-3.3,3.285V8.573a.7.7,0,0,0-1.407,0V21.089l-3.3-3.29a.712.712,0,0,0-1,.005.7.7,0,0,0,.005.99l4.491,4.459h0a.79.79,0,0,0,.222.146.671.671,0,0,0,.271.054.705.705,0,0,0,.492-.2l4.491-4.459A.689.689,0,0,0,21.439,17.81Z" transform="translate(-7.875 21.638) rotate(-90)" fill="#fff"/>
</svg>
