<svg xmlns="http://www.w3.org/2000/svg" width="26.564" height="26.857" viewBox="0 0 26.564 26.857">
  <g id="_006-certificate" data-name="006-certificate" transform="translate(-2.794)">
    <g id="Group_22" data-name="Group 22" transform="translate(2.794 0)">
      <path id="Path_35" data-name="Path 35" d="M69.754,181.506H59.683a.393.393,0,0,0,0,.787h10.07a.393.393,0,1,0,0-.787Z" transform="translate(-56.327 -171.985)" fill="#302e2e"/>
      <path id="Path_36" data-name="Path 36" d="M69.754,234.2H59.683a.393.393,0,1,0,0,.787h10.07a.393.393,0,1,0,0-.787Z" transform="translate(-56.327 -221.917)" fill="#302e2e"/>
      <path id="Path_37" data-name="Path 37" d="M69.754,286.9H59.683a.393.393,0,1,0,0,.787h10.07a.393.393,0,1,0,0-.787Z" transform="translate(-56.327 -271.848)" fill="#302e2e"/>
      <path id="Path_38" data-name="Path 38" d="M70.147,339.987a.393.393,0,0,0-.393-.393H59.683a.393.393,0,1,0,0,.787h10.07A.393.393,0,0,0,70.147,339.987Z" transform="translate(-56.327 -321.781)" fill="#302e2e"/>
      <path id="Path_39" data-name="Path 39" d="M59.683,416.821a.393.393,0,1,0,0,.787h5.048a.393.393,0,1,0,0-.787Z" transform="translate(-56.327 -394.957)" fill="#302e2e"/>
      <path id="Path_40" data-name="Path 40" d="M167.444,53.865V52.589a.883.883,0,0,0-.882-.882h-8.076a.883.883,0,0,0-.882.882v1.276a.883.883,0,0,0,.882.882h.682a.393.393,0,0,0,0-.787h-.682a.1.1,0,0,1-.1-.1V52.589a.1.1,0,0,1,.1-.1h8.076a.1.1,0,0,1,.1.1v1.276a.1.1,0,0,1-.1.1h-5.555a.393.393,0,1,0,0,.787h5.555a.883.883,0,0,0,.882-.882Z" transform="translate(-149.484 -48.995)" fill="#302e2e"/>
      <path id="Path_41" data-name="Path 41" d="M23.7,23.987a.393.393,0,0,0-.393.393v.53a1.161,1.161,0,0,1-1.16,1.16H4.74a1.161,1.161,0,0,1-1.16-1.16V6a1.167,1.167,0,0,1,.028-.25H7.19A1.358,1.358,0,0,0,8.546,4.4V.814A1.167,1.167,0,0,1,8.8.787H22.143a1.161,1.161,0,0,1,1.16,1.16V7.184a.393.393,0,1,0,.787,0V1.946A1.949,1.949,0,0,0,22.143,0H8.8A1.934,1.934,0,0,0,7.42.57L3.364,4.626A1.934,1.934,0,0,0,2.794,6V24.91A1.949,1.949,0,0,0,4.74,26.857h17.4a1.949,1.949,0,0,0,1.946-1.946v-.53a.393.393,0,0,0-.393-.393ZM7.76,1.343V4.4a.57.57,0,0,1-.569.569H4.137Z" transform="translate(-2.794 0)" fill="#302e2e"/>
      <path id="Path_42" data-name="Path 42" d="M304.38,169.936a1.573,1.573,0,0,0-.769-2.366.782.782,0,0,1-.52-.716,1.573,1.573,0,0,0-2.013-1.462.782.782,0,0,1-.842-.274,1.573,1.573,0,0,0-2.488,0,.782.782,0,0,1-.842.274,1.573,1.573,0,0,0-2.013,1.462.782.782,0,0,1-.52.716,1.573,1.573,0,0,0-.769,2.366.782.782,0,0,1,0,.885,1.573,1.573,0,0,0,.769,2.366.782.782,0,0,1,.52.716,1.573,1.573,0,0,0,1.358,1.511V179a.835.835,0,0,0,1.273.711l1.443-.888a.041.041,0,0,1,.05,0l1.443.888a.835.835,0,0,0,1.273-.711v-3.582a1.573,1.573,0,0,0,1.358-1.511.782.782,0,0,1,.52-.716,1.573,1.573,0,0,0,.769-2.366A.781.781,0,0,1,304.38,169.936Zm-3.507,9.1-1.443-.888a.835.835,0,0,0-.875,0l-1.443.888a.048.048,0,0,1-.073-.041v-3.656a.78.78,0,0,1,.71.3,1.573,1.573,0,0,0,2.488,0,.781.781,0,0,1,.71-.3V179A.048.048,0,0,1,300.873,179.036Zm2.857-7.772a.786.786,0,0,1-.384,1.183,1.564,1.564,0,0,0-1.041,1.433.786.786,0,0,1-1.006.731,1.564,1.564,0,0,0-1.685.547.786.786,0,0,1-1.244,0,1.563,1.563,0,0,0-1.239-.611,1.588,1.588,0,0,0-.445.064.783.783,0,0,1-.723-.15.775.775,0,0,1-.283-.581,1.564,1.564,0,0,0-1.041-1.433.786.786,0,0,1-.384-1.183,1.564,1.564,0,0,0,0-1.771.786.786,0,0,1,.384-1.183,1.564,1.564,0,0,0,1.041-1.433.786.786,0,0,1,1.006-.731,1.564,1.564,0,0,0,1.685-.547.786.786,0,0,1,1.244,0,1.564,1.564,0,0,0,1.685.547.786.786,0,0,1,1.006.731,1.564,1.564,0,0,0,1.041,1.433.786.786,0,0,1,.384,1.183,1.564,1.564,0,0,0,0,1.771Z" transform="translate(-278.091 -155.878)" fill="#302e2e"/>
      <path id="Path_43" data-name="Path 43" d="M341.711,213.583a3.3,3.3,0,1,0,3.3,3.3A3.3,3.3,0,0,0,341.711,213.583Zm0,5.807a2.51,2.51,0,1,1,2.51-2.51A2.513,2.513,0,0,1,341.711,219.39Z" transform="translate(-320.809 -202.38)" fill="#302e2e"/>
    </g>
  </g>
</svg>
