<svg xmlns="http://www.w3.org/2000/svg" width="21.364" height="28.917" viewBox="0 0 21.364 28.917">
  <g id="_002-pin" data-name="002-pin" transform="translate(2900.602 193.378)">
    <g id="Group_90" data-name="Group 90" transform="translate(-2948.682 -193.378)">
      <g id="Group_89" data-name="Group 89" transform="translate(48.08)">
        <path id="Path_71" data-name="Path 71" d="M58.762,0A10.694,10.694,0,0,0,48.08,10.682a12.324,12.324,0,0,0,.906,4.113A17.226,17.226,0,0,0,50.221,17.1l7.324,11.1a1.393,1.393,0,0,0,2.434,0L67.3,17.1a17.154,17.154,0,0,0,1.235-2.309,12.321,12.321,0,0,0,.905-4.113A10.694,10.694,0,0,0,58.762,0ZM67.38,14.307a15.783,15.783,0,0,1-1.125,2.1L58.93,27.51c-.145.219-.19.219-.335,0l-7.325-11.1a15.79,15.79,0,0,1-1.125-2.106,11.187,11.187,0,0,1-.808-3.624,9.425,9.425,0,1,1,18.85,0A11.2,11.2,0,0,1,67.38,14.307Z" transform="translate(-48.08)" fill="#302e2e"/>
        <path id="Path_72" data-name="Path 72" d="M117.735,64.008a5.655,5.655,0,1,0,5.655,5.655A5.662,5.662,0,0,0,117.735,64.008Zm0,10.054a4.4,4.4,0,1,1,4.4-4.4A4.4,4.4,0,0,1,117.735,74.062Z" transform="translate(-107.053 -58.981)" fill="#302e2e"/>
      </g>
    </g>
  </g>
</svg>
