<svg xmlns="http://www.w3.org/2000/svg" width="25.476" height="20" viewBox="0 0 25.476 20">
  <g id="_001-cloud-computing" data-name="001-cloud-computing" transform="translate(0 -55.032)">
    <g id="Group_45" data-name="Group 45" transform="translate(0 55.032)">
      <g id="Group_44" data-name="Group 44" transform="translate(0 0)">
        <path id="Path_47" data-name="Path 47" d="M21.226,61.659A8.756,8.756,0,0,0,4,63.155a4.776,4.776,0,0,0,.8,9.489h3.98V71.052H4.8a3.184,3.184,0,1,1,0-6.368.8.8,0,0,0,.8-.8,7.164,7.164,0,0,1,14.193-1.393.8.8,0,0,0,.677.637,3.98,3.98,0,0,1-.541,7.921H16.736v1.592H19.92a5.572,5.572,0,0,0,1.305-10.985Z" transform="translate(0 -55.032)" fill="#0b427b"/>
        <path id="Path_48" data-name="Path 48" d="M184.219,249.242l-3.184,3.184,1.122,1.122,1.831-1.823v7.634h1.592v-7.634l1.823,1.823,1.122-1.122-3.184-3.184A.8.8,0,0,0,184.219,249.242Z" transform="translate(-172.028 -239.36)" fill="#0b427b"/>
      </g>
    </g>
  </g>
</svg>
