<svg xmlns="http://www.w3.org/2000/svg" width="64.472" height="82.061" viewBox="0 0 64.472 82.061">
  <g id="_001-clipboard" data-name="001-clipboard" transform="translate(-47.037 0)">
    <g id="Group_72" data-name="Group 72" transform="translate(47.037 0)">
      <g id="Group_71" data-name="Group 71" transform="translate(0 0)">
        <path id="Path_56" data-name="Path 56" d="M103.3,10.752H95.879V7.431c0-1.075-1.172-1.563-2.247-1.563H87.869A8.738,8.738,0,0,0,79.175.006a8.889,8.889,0,0,0-8.694,5.861H64.816c-1.075,0-2.149.488-2.149,1.563v3.321H55.243a8.3,8.3,0,0,0-8.206,7.912V74.637c0,4.3,3.907,7.424,8.206,7.424H103.3c4.3,0,8.206-3.126,8.206-7.424V18.664A8.3,8.3,0,0,0,103.3,10.752ZM66.574,9.775h5.373A2.149,2.149,0,0,0,73.8,8.017a5.666,5.666,0,0,1,5.373-4.4,5.568,5.568,0,0,1,5.275,4.4A2.149,2.149,0,0,0,86.4,9.775h5.568V17.59h-25.4ZM107.6,74.638c0,2.149-2.149,3.517-4.3,3.517H55.243c-2.149,0-4.3-1.368-4.3-3.517V18.664a4.4,4.4,0,0,1,4.3-4h7.424v4.982A2.052,2.052,0,0,0,64.816,21.5H93.633a2.149,2.149,0,0,0,2.247-1.856V14.659H103.3a4.4,4.4,0,0,1,4.3,4V74.638Z" transform="translate(-47.037 0)" fill="#fff"/>
        <path id="Path_57" data-name="Path 57" d="M114.308,230.921a1.954,1.954,0,0,0-2.735-.1l-6.252,5.959-2.637-2.735a1.954,1.954,0,0,0-2.735-.1,2.051,2.051,0,0,0,0,2.833l4,4.1a1.758,1.758,0,0,0,1.368.586,1.953,1.953,0,0,0,1.368-.586l7.619-7.229a1.856,1.856,0,0,0,.113-2.622C114.385,230.994,114.347,230.956,114.308,230.921Z" transform="translate(-89.594 -187.249)" fill="#fff"/>
        <path id="Path_58" data-name="Path 58" d="M222.969,256.034H200.5a1.954,1.954,0,0,0,0,3.907h22.467a1.954,1.954,0,0,0,0-3.907Z" transform="translate(-170.219 -208.162)" fill="#fff"/>
        <path id="Path_59" data-name="Path 59" d="M114.308,147.329a1.954,1.954,0,0,0-2.735-.1l-6.252,5.959-2.637-2.735a1.954,1.954,0,0,0-2.735-.1,2.051,2.051,0,0,0,0,2.833l4,4.1a1.758,1.758,0,0,0,1.368.586,1.953,1.953,0,0,0,1.368-.586l7.619-7.229a1.856,1.856,0,0,0,.113-2.622C114.385,147.4,114.347,147.364,114.308,147.329Z" transform="translate(-89.594 -119.287)" fill="#fff"/>
        <path id="Path_60" data-name="Path 60" d="M222.969,172.442H200.5a1.954,1.954,0,0,0,0,3.907h22.467a1.954,1.954,0,0,0,0-3.907Z" transform="translate(-170.219 -140.2)" fill="#fff"/>
        <path id="Path_61" data-name="Path 61" d="M114.308,314.512a1.954,1.954,0,0,0-2.735-.1l-6.252,5.959-2.637-2.735a1.954,1.954,0,0,0-2.735-.1,2.051,2.051,0,0,0,0,2.833l4,4.1a1.758,1.758,0,0,0,1.368.586,1.953,1.953,0,0,0,1.368-.586l7.619-7.229a1.856,1.856,0,0,0,.113-2.622C114.385,314.585,114.347,314.548,114.308,314.512Z" transform="translate(-89.594 -255.211)" fill="#fff"/>
        <path id="Path_62" data-name="Path 62" d="M222.969,339.626H200.5a1.954,1.954,0,1,0,0,3.907h22.467a1.954,1.954,0,1,0,0-3.907Z" transform="translate(-170.219 -276.125)" fill="#fff"/>
      </g>
    </g>
  </g>
</svg>
