<svg xmlns="http://www.w3.org/2000/svg" width="22.608" height="22.495" viewBox="0 0 22.608 22.495">
  <g id="_002-edit" data-name="002-edit" transform="translate(0 -0.261)">
    <path id="Path_49" data-name="Path 49" d="M20.866,51.1a.563.563,0,0,0-.563.563v5a1.691,1.691,0,0,1-1.689,1.689H2.815A1.691,1.691,0,0,1,1.126,56.66V41.987A1.691,1.691,0,0,1,2.815,40.3h5a.563.563,0,1,0,0-1.126h-5A2.818,2.818,0,0,0,0,41.987V56.66a2.818,2.818,0,0,0,2.815,2.815h15.8A2.818,2.818,0,0,0,21.43,56.66v-5a.563.563,0,0,0-.563-.563Zm0,0" transform="translate(0 -36.72)" fill="#00dc25"/>
    <path id="Path_50" data-name="Path 50" d="M123.3,1a2.534,2.534,0,0,0-3.583,0L109.676,11.048a.563.563,0,0,0-.145.248l-1.321,4.769a.563.563,0,0,0,.693.693l4.769-1.321a.563.563,0,0,0,.248-.145L123.966,5.247a2.537,2.537,0,0,0,0-3.583ZM110.9,11.414l8.221-8.222,2.651,2.651-8.222,8.222Zm-.53,1.063,2.118,2.119-2.93.812Zm12.8-8.026-.6.6L119.921,2.4l.6-.6a1.408,1.408,0,0,1,1.991,0l.661.661A1.41,1.41,0,0,1,123.169,4.451Zm0,0" transform="translate(-102.098 0)" fill="#00dc25"/>
  </g>
</svg>
