<svg id="_002-online-course" data-name="002-online-course" xmlns="http://www.w3.org/2000/svg" width="26" height="26" viewBox="0 0 26 26">
  <g id="Group_5" data-name="Group 5">
    <path id="Path_7" data-name="Path 7" d="M23.4,10.194V2.6a1.3,1.3,0,0,0-1.3-1.3h-.433a1.3,1.3,0,0,0-1.3-1.3H13a1.722,1.722,0,0,0-1.3.6A1.722,1.722,0,0,0,10.4,0H3.033a1.3,1.3,0,0,0-1.3,1.3H1.3A1.3,1.3,0,0,0,0,2.6V18.633a1.3,1.3,0,0,0,1.3,1.3H15.6V22.1A3.9,3.9,0,0,0,19.5,26h2.6A3.9,3.9,0,0,0,26,22.1V13.867A3.9,3.9,0,0,0,23.4,10.194ZM21.667,2.167H22.1a.434.434,0,0,1,.433.433V9.992a3.9,3.9,0,0,0-.433-.026h-.433ZM4.333.867h2.6v5.7l-.962-1.2a.433.433,0,0,0-.677,0l-.962,1.2ZM2.6,1.3A.434.434,0,0,1,3.033.867h.433V7.8a.433.433,0,0,0,.772.271l1.4-1.744,1.4,1.744A.433.433,0,0,0,7.8,7.8V.867h2.6a.868.868,0,0,1,.867.867V15.868a1.709,1.709,0,0,0-.908-.268H2.6Zm0,15.167h7.759a.933.933,0,0,1,.9.867H2.6Zm13,2.6H1.3a.434.434,0,0,1-.433-.433V2.6A.434.434,0,0,1,1.3,2.167h.433v15.6a.433.433,0,0,0,.433.433H15.6Zm0-1.733H12.144a.934.934,0,0,1,.9-.867H15.6Zm0-1.733H13.043a1.712,1.712,0,0,0-.91.268V1.733A.868.868,0,0,1,13,.867h7.367A.434.434,0,0,1,20.8,1.3V9.967H19.5a3.9,3.9,0,0,0-3.9,3.9Zm4.767-4.767v5.633h-3.9v-2.6A3.037,3.037,0,0,1,19.5,10.833h.867ZM25.133,22.1A3.037,3.037,0,0,1,22.1,25.133H19.5A3.037,3.037,0,0,1,16.467,22.1V17.333h8.667V22.1Zm0-5.633h-3.9V10.833H22.1a3.037,3.037,0,0,1,3.033,3.033Z" fill="#302e2e"/>
  </g>
</svg>
