<svg xmlns="http://www.w3.org/2000/svg" width="25.999" height="17.333" viewBox="0 0 25.999 17.333">
  <g id="_004-mail" data-name="004-mail" transform="translate(0 -85.333)">
    <g id="Group_46" data-name="Group 46" transform="translate(0 85.333)">
      <path id="Path_55" data-name="Path 55" d="M24.666,85.333H1.333A1.337,1.337,0,0,0,0,86.666v14.666a1.337,1.337,0,0,0,1.333,1.333H24.666A1.337,1.337,0,0,0,26,101.332V86.666A1.337,1.337,0,0,0,24.666,85.333Zm-.5,1-10.4,7.8a1.394,1.394,0,0,1-1.534,0l-10.4-7.8Zm-5.555,8.314,5.666,7c.006.007.013.012.019.019H1.7c.006-.007.013-.012.019-.019l5.666-7a.5.5,0,0,0-.777-.629L1,100.949V86.958l10.633,7.975a2.387,2.387,0,0,0,2.733,0L25,86.958v13.991l-5.611-6.931a.5.5,0,0,0-.777.629Z" transform="translate(0 -85.333)" fill="#00cafd"/>
    </g>
  </g>
</svg>
