<svg xmlns="http://www.w3.org/2000/svg" width="92.159" height="60.103" viewBox="0 0 92.159 60.103">
  <g id="_005-user" data-name="005-user" transform="translate(0 -85.333)">
    <g id="Group_11" data-name="Group 11" transform="translate(32.055 85.333)">
      <g id="Group_10" data-name="Group 10" transform="translate(0 0)">
        <path id="Path_29" data-name="Path 29" d="M184.69,85.333a14.024,14.024,0,1,0,14.024,14.024A14.04,14.04,0,0,0,184.69,85.333Zm0,24.041a10.017,10.017,0,1,1,10.017-10.017A10.031,10.031,0,0,1,184.69,109.374Z" transform="translate(-170.666 -85.333)" fill="#fff"/>
      </g>
    </g>
    <g id="Group_13" data-name="Group 13" transform="translate(64.11 101.361)">
      <g id="Group_12" data-name="Group 12" transform="translate(0 0)">
        <path id="Path_30" data-name="Path 30" d="M351.351,170.667a10.017,10.017,0,1,0,10.017,10.017A10.031,10.031,0,0,0,351.351,170.667Zm0,16.027a6.01,6.01,0,1,1,6.01-6.01A6.018,6.018,0,0,1,351.351,186.694Z" transform="translate(-341.334 -170.667)" fill="#fff"/>
      </g>
    </g>
    <g id="Group_15" data-name="Group 15" transform="translate(8.298 101.361)">
      <g id="Group_14" data-name="Group 14" transform="translate(0 0)">
        <path id="Path_31" data-name="Path 31" d="M54.2,170.667a10.017,10.017,0,1,0,10.017,10.017A10.028,10.028,0,0,0,54.2,170.667Zm0,16.027a6.01,6.01,0,1,1,6.01-6.01A6.018,6.018,0,0,1,54.2,186.694Z" transform="translate(-44.182 -170.667)" fill="#fff"/>
      </g>
    </g>
    <g id="Group_17" data-name="Group 17" transform="translate(20.034 117.388)">
      <g id="Group_16" data-name="Group 16" transform="translate(0 0)">
        <path id="Path_32" data-name="Path 32" d="M132.711,256a26.075,26.075,0,0,0-26.045,26.045,2,2,0,0,0,4.007,0,22.038,22.038,0,1,1,44.076,0,2,2,0,0,0,4.007,0A26.075,26.075,0,0,0,132.711,256Z" transform="translate(-106.666 -256)" fill="#fff"/>
      </g>
    </g>
    <g id="Group_19" data-name="Group 19" transform="translate(63.825 125.402)">
      <g id="Group_18" data-name="Group 18" transform="translate(0 0)">
        <path id="Path_33" data-name="Path 33" d="M350.116,298.667a18.032,18.032,0,0,0-9.34,2.6,2,2,0,0,0,2.079,3.426,14.027,14.027,0,0,1,21.285,12,2,2,0,0,0,4.007,0A18.053,18.053,0,0,0,350.116,298.667Z" transform="translate(-339.813 -298.667)" fill="#fff"/>
      </g>
    </g>
    <g id="Group_21" data-name="Group 21" transform="translate(0 125.402)">
      <g id="Group_20" data-name="Group 20" transform="translate(0 0)">
        <path id="Path_34" data-name="Path 34" d="M27.367,301.267A18.037,18.037,0,0,0,0,316.7a2,2,0,0,0,4.007,0,14.029,14.029,0,0,1,21.28-12,2,2,0,0,0,2.08-3.426Z" transform="translate(0 -298.667)" fill="#fff"/>
      </g>
    </g>
  </g>
</svg>
