<svg xmlns="http://www.w3.org/2000/svg" width="82" height="82" viewBox="0 0 82 82">
  <g id="_002-online-course" data-name="002-online-course" transform="translate(0 -1)">
    <g id="Group_5" data-name="Group 5" transform="translate(0 1)">
      <path id="Path_7" data-name="Path 7" d="M73.8,32.151V8.2a4.1,4.1,0,0,0-4.1-4.1H68.333a4.1,4.1,0,0,0-4.1-4.1H41a5.432,5.432,0,0,0-4.1,1.889A5.432,5.432,0,0,0,32.8,0H9.567a4.1,4.1,0,0,0-4.1,4.1H4.1A4.1,4.1,0,0,0,0,8.2V58.767a4.1,4.1,0,0,0,4.1,4.1H49.2V69.7A12.314,12.314,0,0,0,61.5,82h8.2A12.314,12.314,0,0,0,82,69.7V43.733A12.31,12.31,0,0,0,73.8,32.151ZM68.333,6.833H69.7A1.368,1.368,0,0,1,71.067,8.2V31.514a12.294,12.294,0,0,0-1.367-.081H68.333Zm-54.667-4.1h8.2V20.7l-3.033-3.791a1.366,1.366,0,0,0-2.134,0L13.667,20.7ZM8.2,4.1A1.368,1.368,0,0,1,9.567,2.733h1.367V24.6a1.366,1.366,0,0,0,2.434.853l4.4-5.5,4.4,5.5A1.366,1.366,0,0,0,24.6,24.6V2.733h8.2a2.736,2.736,0,0,1,2.733,2.733V50.045A5.388,5.388,0,0,0,32.67,49.2H8.2Zm0,47.833H32.67A2.941,2.941,0,0,1,35.5,54.667H8.2Zm41,8.2H4.1a1.368,1.368,0,0,1-1.367-1.367V8.2A1.368,1.368,0,0,1,4.1,6.833H5.467v49.2A1.367,1.367,0,0,0,6.833,57.4H49.2Zm0-5.467H38.3a2.945,2.945,0,0,1,2.838-2.733H49.2Zm0-5.467H41.137a5.4,5.4,0,0,0-2.87.847V5.467A2.736,2.736,0,0,1,41,2.733H64.233A1.368,1.368,0,0,1,65.6,4.1V31.433H61.5a12.314,12.314,0,0,0-12.3,12.3ZM64.233,34.167V51.933h-12.3v-8.2A9.577,9.577,0,0,1,61.5,34.167ZM79.267,69.7A9.577,9.577,0,0,1,69.7,79.267H61.5A9.577,9.577,0,0,1,51.933,69.7V54.667H79.267V69.7Zm0-17.767h-12.3V34.167H69.7a9.577,9.577,0,0,1,9.567,9.567Z" fill="#fff"/>
    </g>
  </g>
</svg>
