<svg id="XMLID_1_" xmlns="http://www.w3.org/2000/svg" width="78.133" height="77.545" viewBox="0 0 78.133 77.545">
  <path id="Path_8" data-name="Path 8" d="M15.128,9.09l28.681,5.7a4.81,4.81,0,0,1,3.874,4.753V52.747A4.877,4.877,0,0,1,42.8,57.63H13.5A1.612,1.612,0,0,0,15.128,56V54.374H42.8a1.632,1.632,0,0,0,1.628-1.628V19.54a1.636,1.636,0,0,0-1.27-1.6l-28.03-5.534Z" transform="translate(30.45 19.915)" fill="#fff"/>
  <path id="Path_9" data-name="Path 9" d="M25.139,14a1.628,1.628,0,1,1,0,3.256H18.628a1.628,1.628,0,0,1,0-3.256Z" transform="translate(38.344 30.99)" fill="#fff"/>
  <path id="Path_10" data-name="Path 10" d="M25.139,17a1.628,1.628,0,1,1,0,3.256H18.628a1.628,1.628,0,1,1,0-3.256Z" transform="translate(38.344 37.756)" fill="#fff"/>
  <path id="Path_11" data-name="Path 11" d="M25.139,20a1.628,1.628,0,1,1,0,3.256H18.628a1.628,1.628,0,1,1,0-3.256Z" transform="translate(38.344 44.523)" fill="#fff"/>
  <path id="Path_12" data-name="Path 12" d="M16.256,56.2A1.628,1.628,0,0,1,13,56.2V10.627a1.731,1.731,0,0,1,.586-1.27,1.711,1.711,0,0,1,1.367-.326l1.3.26V56.2Z" transform="translate(29.322 19.712)" fill="#fff"/>
  <path id="Path_13" data-name="Path 13" d="M20.894,23v1.628a1.612,1.612,0,0,0,1.628,1.628H9.5a1.612,1.612,0,0,0,1.628-1.628V23Z" transform="translate(21.428 51.289)" fill="#fff"/>
  <path id="Path_14" data-name="Path 14" d="M16.139,5a1.628,1.628,0,1,1,0,3.256H9.628A1.628,1.628,0,1,1,9.628,5Z" transform="translate(18.044 10.69)" fill="#fff"/>
  <path id="Path_15" data-name="Path 15" d="M17.767,9.628a1.612,1.612,0,0,1-1.628,1.628H9.628A1.628,1.628,0,1,1,9.628,8h6.511A1.612,1.612,0,0,1,17.767,9.628Z" transform="translate(18.044 17.456)" fill="#fff"/>
  <path id="Path_16" data-name="Path 16" d="M16.139,11a1.628,1.628,0,1,1,0,3.256H9.628a1.628,1.628,0,1,1,0-3.256Z" transform="translate(18.044 24.223)" fill="#fff"/>
  <path id="Path_17" data-name="Path 17" d="M16.139,14a1.628,1.628,0,0,1,0,3.256H9.628a1.628,1.628,0,1,1,0-3.256Z" transform="translate(18.044 30.99)" fill="#fff"/>
  <path id="Path_18" data-name="Path 18" d="M12.767,15.628a1.612,1.612,0,0,1-1.628,1.628H4.628a1.628,1.628,0,0,1,0-3.256h6.511A1.612,1.612,0,0,1,12.767,15.628Z" transform="translate(6.767 30.99)" fill="#fff"/>
  <path id="Path_19" data-name="Path 19" d="M11.139,5a1.628,1.628,0,1,1,0,3.256H4.628A1.628,1.628,0,1,1,4.628,5Z" transform="translate(6.767 10.69)" fill="#fff"/>
  <path id="Path_20" data-name="Path 20" d="M11.139,8a1.628,1.628,0,1,1,0,3.256H4.628A1.628,1.628,0,1,1,4.628,8Z" transform="translate(6.767 17.456)" fill="#fff"/>
  <path id="Path_21" data-name="Path 21" d="M11.139,11a1.628,1.628,0,1,1,0,3.256H4.628a1.628,1.628,0,1,1,0-3.256Z" transform="translate(6.767 24.223)" fill="#fff"/>
  <path id="Path_22" data-name="Path 22" d="M20.278,21.883a1.632,1.632,0,0,0-1.628-1.628H8.883a1.612,1.612,0,0,0-1.628,1.628v14.65H4V21.883A4.877,4.877,0,0,1,8.883,17H18.65a4.877,4.877,0,0,1,4.883,4.883v14.65H20.278Z" transform="translate(9.022 37.756)" fill="#fff"/>
  <path id="Path_23" data-name="Path 23" d="M7.256,23H23.533v1.628a1.612,1.612,0,0,1-1.628,1.628H5.628A1.612,1.612,0,0,1,4,24.628V23Z" transform="translate(9.022 51.289)" fill="#fff"/>
  <path id="Path_24" data-name="Path 24" d="M5.7.244,41.475,5.681a4.865,4.865,0,0,1,4.1,4.818V29.186l-1.3-.26a1.711,1.711,0,0,0-1.367.326,1.731,1.731,0,0,0-.586,1.27V10.5a1.646,1.646,0,0,0-1.367-1.628L5.176,3.467a.9.9,0,0,0-.293-.033,1.536,1.536,0,0,0-1.042.391,1.557,1.557,0,0,0-.586,1.237v67.78A1.632,1.632,0,0,0,4.883,74.47h8.139V76.1a1.612,1.612,0,0,0,1.628,1.628H4.883A4.877,4.877,0,0,1,0,72.842V5.062A4.794,4.794,0,0,1,1.725,1.351,4.887,4.887,0,0,1,5.7.244Z" transform="translate(0 -0.181)" fill="#fff"/>
</svg>
