<?xml version="1.0" encoding="utf-8"?><!-- Generator: Adobe Illustrator 18.1.1, SVG Export Plug-In . SVG Version: 6.00 Build 0)  --><svg version="1.1" id="Layer_1" xmlns="http://www.w3.org/2000/svg" xmlns:xlink="http://www.w3.org/1999/xlink" x="0px" y="0px" viewBox="0 0 165.5 50.2" enable-background="new 0 0 165.5 50.2" xml:space="preserve"><g><g><path fill="#FFFFFF" d="M81.1,22.7c0.4,0.3,1.1,0.5,1.8,0.5c1,0,1.6-0.5,1.6-1.3c0-0.7-0.4-1.1-1.4-1.5c-1.3-0.5-2-1.1-2-2.2c0-1.2,1-2.1,2.5-2.1c0.8,0,1.4,0.2,1.7,0.4l-0.3,0.8c-0.2-0.1-0.7-0.4-1.4-0.4c-1,0-1.4,0.6-1.4,1.1c0,0.7,0.5,1.1,1.5,1.5c1.3,0.5,1.9,1.1,1.9,2.3c0,1.2-0.9,2.2-2.7,2.2c-0.7,0-1.5-0.2-2-0.5L81.1,22.7"/><path fill="#FFFFFF" d="M87.5,21.4c0,1.4,0.9,1.9,1.9,1.9c0.7,0,1.2-0.1,1.5-0.3l0.2,0.7c-0.4,0.2-1,0.4-1.8,0.4c-1.7,0-2.7-1.1-2.7-2.8c0-1.7,1-3,2.6-3c1.8,0,2.3,1.6,2.3,2.6c0,0.2,0,0.4,0,0.5L87.5,21.4 M90.4,20.7c0-0.6-0.3-1.6-1.4-1.6c-1,0-1.5,0.9-1.5,1.6H90.4z"/><path fill="#FFFFFF" d="M96.5,23.8c-0.3,0.1-0.8,0.3-1.6,0.3c-1.7,0-2.7-1.1-2.7-2.8c0-1.7,1.2-2.9,3-2.9c0.6,0,1.1,0.1,1.4,0.3l-0.2,0.8c-0.2-0.1-0.6-0.3-1.2-0.3c-1.3,0-1.9,0.9-1.9,2.1c0,1.3,0.8,2.1,1.9,2.1c0.6,0,0.9-0.1,1.2-0.3L96.5,23.8"/><path fill="#FFFFFF" d="M102.3,22.4c0,0.6,0,1.1,0,1.5h-0.9l-0.1-0.9h0c-0.3,0.4-0.8,1-1.8,1c-0.9,0-1.9-0.5-1.9-2.4v-3.2h1v3c0,1,0.3,1.8,1.2,1.8c0.7,0,1.1-0.5,1.3-0.9c0.1-0.1,0.1-0.3,0.1-0.5v-3.4h1V22.4"/><path fill="#FFFFFF" d="M104,20.2c0-0.6,0-1.2,0-1.7h0.9l0,1.1h0c0.2-0.7,0.9-1.2,1.5-1.2c0.1,0,0.2,0,0.3,0v0.9c-0.1,0-0.2,0-0.4,0c-0.7,0-1.2,0.5-1.3,1.3c0,0.1,0,0.3,0,0.5v2.9h-1L104,20.2"/><path fill="#FFFFFF" d="M108.2,17.4c-0.4,0-0.6-0.3-0.6-0.7c0-0.4,0.3-0.6,0.7-0.6c0.4,0,0.6,0.3,0.6,0.6C108.9,17.1,108.6,17.4,108.2,17.4L108.2,17.4 M108.7,23.9h-1v-5.5h1V23.9z"/><path fill="#FFFFFF" d="M111.6,17.1v1.3h1.4v0.8h-1.4v3c0,0.7,0.2,1.1,0.8,1.1c0.3,0,0.4,0,0.6-0.1l0,0.8c-0.2,0.1-0.5,0.1-0.9,0.1c-0.5,0-0.8-0.2-1.1-0.4c-0.3-0.3-0.4-0.8-0.4-1.4v-3h-0.9v-0.8h0.9v-1L111.6,17.1"/><path fill="#FFFFFF" d="M114.6,18.4l1.2,3.3c0.1,0.4,0.3,0.8,0.4,1.1h0c0.1-0.3,0.2-0.8,0.4-1.1l1.1-3.2h1.1l-1.5,3.9c-0.7,1.9-1.2,2.9-1.9,3.5c-0.5,0.4-1,0.6-1.2,0.6l-0.3-0.8c0.3-0.1,0.6-0.2,0.9-0.5c0.3-0.2,0.6-0.6,0.8-1.1c0-0.1,0.1-0.2,0.1-0.2c0-0.1,0-0.1-0.1-0.3l-2-5.1H114.6"/><path fill="#FFFFFF" d="M81.1,34.1c0.4,0.3,1.1,0.5,1.8,0.5c1,0,1.6-0.5,1.6-1.3c0-0.7-0.4-1.1-1.4-1.5c-1.3-0.5-2-1.1-2-2.2c0-1.2,1-2.1,2.5-2.1c0.8,0,1.4,0.2,1.7,0.4l-0.3,0.8c-0.2-0.1-0.7-0.4-1.4-0.4c-1,0-1.4,0.6-1.4,1.1c0,0.7,0.5,1.1,1.5,1.5c1.3,0.5,1.9,1.1,1.9,2.3c0,1.2-0.9,2.2-2.7,2.2c-0.7,0-1.5-0.2-2-0.5L81.1,34.1"/><path fill="#FFFFFF" d="M88,28.5v1.3h1.4v0.8H88v3c0,0.7,0.2,1.1,0.8,1.1c0.3,0,0.4,0,0.6-0.1l0,0.8c-0.2,0.1-0.5,0.1-0.9,0.1c-0.5,0-0.8-0.2-1.1-0.4c-0.3-0.3-0.4-0.8-0.4-1.4v-3h-0.9v-0.8H87v-1L88,28.5"/><path fill="#FFFFFF" d="M94.4,34c0,0.5,0,0.9,0.1,1.3h-0.9l-0.1-0.7h0c-0.3,0.4-0.9,0.8-1.7,0.8c-1.1,0-1.7-0.8-1.7-1.6c0-1.3,1.2-2.1,3.3-2v-0.1c0-0.5-0.1-1.3-1.3-1.3c-0.5,0-1.1,0.1-1.4,0.4l-0.2-0.7c0.5-0.3,1.1-0.5,1.8-0.5c1.7,0,2.1,1.1,2.1,2.2V34 M93.5,32.5c-1.1,0-2.3,0.2-2.3,1.2c0,0.7,0.4,1,0.9,1c0.7,0,1.2-0.5,1.4-0.9c0-0.1,0-0.2,0-0.3V32.5z"/><path fill="#FFFFFF" d="M96,31.3c0-0.6,0-1,0-1.5h0.9l0.1,0.9h0c0.3-0.5,0.9-1,1.8-1c0.8,0,1.9,0.5,1.9,2.3v3.3h-1v-3.2c0-0.9-0.3-1.6-1.3-1.6c-0.6,0-1.2,0.5-1.3,1c0,0.1-0.1,0.3-0.1,0.5v3.3h-1V31.3"/><path fill="#FFFFFF" d="M107.1,27.2v6.7c0,0.5,0,1,0,1.4h-0.9l0-1h0c-0.3,0.6-1,1.1-1.9,1.1c-1.3,0-2.4-1.1-2.4-2.8c0-1.8,1.1-3,2.5-3c0.9,0,1.4,0.4,1.7,0.8h0v-3.3H107.1 M106.1,32.1c0-0.1,0-0.3,0-0.4c-0.1-0.6-0.7-1.1-1.4-1.1c-1,0-1.7,0.9-1.7,2.1c0,1.1,0.6,2,1.6,2c0.7,0,1.3-0.5,1.5-1.2c0-0.1,0-0.3,0-0.4V32.1z"/><path fill="#FFFFFF" d="M112.7,34c0,0.5,0,0.9,0.1,1.3h-0.9l-0.1-0.7h0c-0.3,0.4-0.9,0.8-1.7,0.8c-1.1,0-1.7-0.8-1.7-1.6c0-1.3,1.2-2.1,3.3-2v-0.1c0-0.5-0.1-1.3-1.3-1.3c-0.5,0-1.1,0.1-1.4,0.4l-0.2-0.7c0.5-0.3,1.1-0.5,1.8-0.5c1.7,0,2.1,1.1,2.1,2.2V34 M111.7,32.5c-1.1,0-2.3,0.2-2.3,1.2c0,0.7,0.4,1,0.9,1c0.7,0,1.2-0.5,1.4-0.9c0-0.1,0-0.2,0-0.3V32.5z"/><path fill="#FFFFFF" d="M114.3,31.5c0-0.6,0-1.2,0-1.7h0.9l0,1.1h0c0.3-0.7,0.9-1.2,1.5-1.2c0.1,0,0.2,0,0.3,0v0.9c-0.1,0-0.2,0-0.4,0c-0.7,0-1.2,0.5-1.3,1.3c0,0.1,0,0.3,0,0.5v2.9h-1L114.3,31.5"/><path fill="#FFFFFF" d="M122.7,27.2v6.7c0,0.5,0,1,0,1.4h-0.9l0-1h0c-0.3,0.6-1,1.1-1.9,1.1c-1.3,0-2.4-1.1-2.4-2.8c0-1.8,1.1-3,2.5-3c0.9,0,1.4,0.4,1.7,0.8h0v-3.3H122.7 M121.7,32.1c0-0.1,0-0.3,0-0.4c-0.2-0.6-0.7-1.1-1.4-1.1c-1,0-1.6,0.9-1.6,2.1c0,1.1,0.6,2,1.6,2c0.7,0,1.3-0.5,1.5-1.2c0-0.1,0-0.3,0-0.4V32.1z"/><path fill="#FFFFFF" d="M124.2,34.3c0.3,0.2,0.8,0.4,1.3,0.4c0.7,0,1.1-0.4,1.1-0.8c0-0.5-0.3-0.7-1-1c-1-0.4-1.5-0.9-1.5-1.6c0-0.9,0.7-1.6,1.9-1.6c0.6,0,1,0.1,1.3,0.3l-0.2,0.7c-0.2-0.1-0.6-0.3-1.1-0.3c-0.6,0-0.9,0.3-0.9,0.8c0,0.5,0.3,0.7,1,0.9c0.9,0.4,1.4,0.8,1.4,1.7c0,1-0.8,1.7-2,1.7c-0.6,0-1.2-0.2-1.6-0.4L124.2,34.3"/><path fill="#FFFFFF" d="M136.6,35.1c-0.4,0.2-1.1,0.4-2,0.4c-2.2,0-3.8-1.4-3.8-3.9c0-2.4,1.6-4,4-4c0.9,0,1.6,0.2,1.8,0.3l-0.3,0.8c-0.4-0.2-0.9-0.3-1.5-0.3c-1.8,0-3,1.1-3,3.2c0,1.9,1.1,3.1,2.9,3.1c0.6,0,1.2-0.1,1.6-0.3L136.6,35.1"/><path fill="#FFFFFF" d="M139.9,35.4c-1.5,0-2.6-1.1-2.6-2.8c0-1.8,1.2-2.9,2.7-2.9c1.6,0,2.6,1.1,2.6,2.8C142.7,34.6,141.2,35.4,139.9,35.4L139.9,35.4 M140,34.7c1,0,1.7-0.9,1.7-2.2c0-0.9-0.5-2.1-1.7-2.1c-1.2,0-1.7,1.1-1.7,2.1C138.3,33.8,139,34.7,140,34.7L140,34.7z"/><path fill="#FFFFFF" d="M148.5,33.8c0,0.6,0,1.1,0,1.5h-0.9l-0.1-0.9h0c-0.3,0.4-0.8,1-1.8,1c-0.9,0-1.9-0.5-1.9-2.4v-3.2h1v3c0,1,0.3,1.8,1.2,1.8c0.7,0,1.1-0.5,1.3-0.9c0.1-0.1,0.1-0.3,0.1-0.5v-3.4h1V33.8"/><path fill="#FFFFFF" d="M150.2,31.3c0-0.6,0-1,0-1.5h0.9l0.1,0.9h0c0.3-0.5,0.9-1,1.8-1c0.8,0,1.9,0.5,1.9,2.3v3.3h-1v-3.2c0-0.9-0.3-1.6-1.3-1.6c-0.6,0-1.2,0.5-1.3,1c0,0.1-0.1,0.3-0.1,0.5v3.3h-1V31.3"/><path fill="#FFFFFF" d="M160.4,35.1c-0.3,0.1-0.8,0.3-1.6,0.3c-1.7,0-2.7-1.1-2.7-2.8c0-1.7,1.2-2.9,3-2.9c0.6,0,1.1,0.1,1.4,0.3l-0.2,0.8c-0.2-0.1-0.6-0.3-1.2-0.3c-1.3,0-2,0.9-2,2.1c0,1.3,0.8,2.1,1.9,2.1c0.6,0,0.9-0.1,1.2-0.3L160.4,35.1"/><path fill="#FFFFFF" d="M162.1,28.8c-0.4,0-0.6-0.3-0.6-0.6c0-0.4,0.3-0.6,0.6-0.6c0.4,0,0.6,0.3,0.6,0.6C162.7,28.5,162.5,28.8,162.1,28.8L162.1,28.8 M162.6,35.3h-1v-5.5h1V35.3z"/><rect x="164.3" y="27.2" fill="#FFFFFF" width="1" height="8.1"/><g><polyline fill="#FFFFFF" points="76.1,31.7 17.2,50.2 0,3.5 61.8,0 76.1,31.7 "/></g><g><path fill="#595A5C" d="M31.5,22.3c0,1.2-0.3,2.2-0.8,3.1c-0.5,0.9-1.3,1.7-2.2,2.3c-1,0.6-2.1,1.1-3.4,1.4c-1.3,0.3-2.8,0.4-4.4,0.4h-1.2v6h-7.7V15.4h9c3.4,0,6,0.6,7.9,1.7C30.6,18.3,31.5,20,31.5,22.3 M24.2,22.4c0-1.7-1.3-2.6-3.9-2.6h-0.9v5.4h0.9c1.3,0,2.3-0.2,2.9-0.7C23.9,24,24.2,23.3,24.2,22.4z"/><path fill="#595A5C" d="M50.5,35.5c-1.2,0.2-2.5,0.3-4,0.3c-2.1,0-4-0.2-5.7-0.7c-1.7-0.5-3.1-1.2-4.2-2.1c-1.2-0.9-2-2-2.6-3.3c-0.6-1.3-0.9-2.7-0.9-4.3c0-1.6,0.3-3,1-4.2c0.6-1.3,1.5-2.4,2.7-3.3c1.2-0.9,2.5-1.6,4.2-2.1c1.6-0.5,3.4-0.7,5.3-0.7c1.5,0,2.9,0,4.1,0.3c1.2,0.3,1.2,0.3,2.2,0.7l0,5.4c-0.8-0.4-1.6-0.8-2.5-1.1C49,20.1,48,20,46.9,20c-1.7,0-3.1,0.5-4.2,1.4c-1.1,1-1.6,2.3-1.6,4.1c0,0.9,0.2,1.7,0.5,2.4c0.3,0.7,0.8,1.3,1.4,1.7c0.6,0.5,1.2,0.8,2,1c0.8,0.2,1.6,0.4,2.5,0.4c0.9,0,1.8-0.1,2.7-0.3c0.9-0.2,1.8-0.5,2.8-0.8l0,5C51.7,35.2,51.6,35.3,50.5,35.5"/><rect x="56.1" y="15.4" fill="#595A5C" width="7.7" height="20.1"/><path fill="#595A5C" d="M64.6,9.2c0,1.3-0.4,2.4-1.3,3.2c-0.9,0.8-2,1.2-3.3,1.2c-1.3,0-2.4-0.4-3.3-1.2c-0.9-0.8-1.3-1.8-1.3-3.2c0-1.4,0.4-2.5,1.3-3.2c0.9-0.8,2-1.2,3.3-1.2c1.3,0,2.4,0.4,3.3,1.2C64.1,6.7,64.6,7.8,64.6,9.2"/></g></g><g><path fill="#FFFFFF" d="M165.5,18c0,1.3-1,2.3-2.3,2.3c-1.3,0-2.3-1-2.3-2.3c0-1.3,1-2.3,2.3-2.3C164.5,15.7,165.5,16.7,165.5,18z M161.6,18c0,0.9,0.7,1.7,1.6,1.7c0.9,0,1.6-0.8,1.6-1.7c0-0.9-0.7-1.7-1.7-1.7C162.3,16.3,161.6,17,161.6,18z M162.9,19h-0.6V17c0.1,0,0.5-0.1,0.9-0.1c0.5,0,0.7,0.1,0.8,0.2c0.1,0.1,0.2,0.3,0.2,0.5c0,0.2-0.2,0.4-0.5,0.5v0c0.2,0.1,0.4,0.2,0.4,0.5c0.1,0.3,0.1,0.4,0.1,0.5h-0.7c-0.1-0.1-0.1-0.3-0.1-0.4c0-0.2-0.1-0.3-0.4-0.3h-0.2V19z M162.9,17.9h0.2c0.2,0,0.4-0.1,0.4-0.3c0-0.2-0.1-0.3-0.4-0.3c-0.1,0-0.2,0-0.2,0V17.9z"/></g></g></svg>